<?xml version="1.0" encoding="UTF-8"?>
<!DOCTYPE svg>
<svg xmlns="http://www.w3.org/2000/svg" version="1.1" viewBox="0 0 4332.56 637.26"><path style="fill:white" d="M314.96 637.26c157.9,0 278.84,-105.69 301.41,-261.48l-166.93 0c-16.65,65.76 -68.3,108.65 -134.2,108.65 -83.82,0 -145.34,-66.46 -145.34,-157.9 0,-91.72 61.52,-159.32 145.34,-159.32 62.51,0 113.6,39.52 134.06,100.34l165.38 0c-24.13,-150.29 -144.36,-252.88 -299.72,-252.88 -180.34,0 -314.96,133.64 -314.96,311.86 0,177.24 134.62,310.73 314.96,310.73l0 0zm843 -247.94c0,-134.05 -102.02,-239.18 -249.48,-239.18 -143.51,0 -248.36,103.01 -248.36,243.28 0,139.7 105.69,243.84 248.36,243.84 114.72,0 207.15,-65.2 239.32,-169.48l-156.63 0c-15.1,26.81 -45.86,42.9 -82.69,42.9 -49.67,0 -82.98,-27.09 -93.28,-79.59l339.52 0c1.97,-14.11 3.24,-27.94 3.24,-41.77l0 0zm-249.48 -115.85c47.55,0 80.43,24.7 94.26,70.42l-184.86 0c12.84,-45.44 44.74,-70.42 90.6,-70.42l0 0zm596.9 -121.92c-58.84,0 -109.36,22.72 -143.37,60.54l-21.59 -46.99 -110.49 0 0 457.2 157.48 0 0 -244.12c0,-58.56 28.09,-92.85 77.05,-92.85 39.37,0 59.27,26.38 59.27,79.58l0 257.39 157.48 0 0 -279.12c0,-116.42 -69.71,-191.63 -175.83,-191.63l0 0zm514.92 332.74c-33.16,0 -52.91,-19.75 -52.91,-52.49l0 -145.63 110.77 0 0 -121.07 -115.01 0 0 -133.63 -32.17 0 -204.75 217.87 0 36.83 83.68 0 0 172.72c0,101.6 61.52,163.41 162.56,163.41l108.23 0 0 -138.01 -60.4 0zm403.16 -333.44c-42.33,0 -81,11.28 -113.73,31.46l0 -182.31 -155.65 0 0 622.3 116.56 0 14.82 -34.01c37.11,31.05 84.52,48.97 138,48.97 140.69,0 240.03,-101.04 240.03,-243.28 0,-142.1 -99.34,-243.13 -240.03,-243.13l0 0zm-21.16 346.99c-58.99,0 -102.31,-44.59 -102.31,-103.86 0,-59.69 43.32,-104.28 102.31,-104.28 58.98,0 102.44,44.59 102.44,104.28 0,59.27 -43.74,103.86 -102.44,103.86zm702.73 -333.17l-16.09 35.28c-37.67,-31.04 -85.79,-49.1 -139.7,-49.1 -139.84,0 -239.75,100.75 -239.75,242.43 0,142.1 99.91,243.98 239.75,243.98 53.06,0 100.47,-17.5 138.01,-47.84l13.4 32.32 121.64 0 0 -457.07 -117.26 0zm-134.76 333.17c-58.99,0 -102.45,-44.45 -102.45,-104.28 0,-59.41 43.04,-104 102.45,-104 58.98,0 102.44,44.59 102.44,104 0,59.69 -43.46,104.28 -102.44,104.28l0 0zm627.24 -346.29c-58.84,0 -109.36,22.72 -143.37,60.54l-21.59 -46.99 -110.49 0 0 457.2 157.48 0 0 -244.12c0,-58.56 28.09,-92.85 77.05,-92.85 39.37,0 59.27,26.38 59.27,79.58l0 257.39 157.48 0 0 -279.12c0,-116.42 -69.71,-191.63 -175.83,-191.63l0 0zm735.05 470.75l-156.91 -239.33 142.52 -217.87 -176.96 0 -108.79 179.07 0 -344.17 -157.48 0 0 622.3 157.48 0 0 -193.32 114.44 193.32 185.7 0z" /></svg>