<?xml version="1.0" encoding="UTF-8"?>
<!DOCTYPE svg>
<svg xmlns="http://www.w3.org/2000/svg" version="1.1" viewBox="0 0 10755.18 1593.14">
 <defs>
  <style type="text/css">
   <![CDATA[
    .fil0 {fill:url(#id0)}
   ]]>
  </style>
  <linearGradient id="id0" gradientUnits="userSpaceOnUse" x1="-0" y1="796.57" x2="10755.18" y2="796.57">
   <stop offset="0" style="stop-opacity:1; stop-color:#43D9AE"/>
   <stop offset="1" style="stop-opacity:1; stop-color:#4BF278"/>
  </linearGradient>
 </defs>
 <g>
  <path class="fil0" d="M787.4 1593.14c394.76,0 697.09,-264.23 753.54,-653.69l-417.34 0c-41.63,164.39 -170.74,271.64 -335.49,271.64 -209.55,0 -363.36,-166.16 -363.36,-394.76 0,-229.31 153.81,-398.29 363.36,-398.29 156.28,0 283.99,98.78 335.14,250.83l413.45 0c-60.32,-375.71 -360.89,-632.18 -749.3,-632.18 -450.85,0 -787.4,334.08 -787.4,779.64 0,443.09 336.55,776.81 787.4,776.81l0 0zm2107.5 -619.83c0,-335.14 -255.06,-597.96 -623.71,-597.96 -358.78,0 -620.89,257.53 -620.89,608.19 0,349.25 264.23,609.6 620.89,609.6 286.81,0 517.88,-162.98 598.31,-423.68l-391.58 0c-37.75,67.03 -114.65,107.24 -206.73,107.24 -124.18,0 -207.43,-67.73 -233.19,-198.96l848.79 0c4.94,-35.28 8.11,-69.85 8.11,-104.43l0 0zm-623.71 -289.63c118.89,0 201.08,61.74 235.66,176.04l-462.14 0c32.1,-113.6 111.83,-176.04 226.48,-176.04l0 0zm1492.26 -304.8c-147.11,0 -273.41,56.8 -358.43,151.34l-53.97 -117.47 -276.23 0 0 1143 393.7 0 0 -610.31c0,-146.4 70.21,-232.12 192.62,-232.12 98.43,0 148.17,65.96 148.17,198.96l0 643.47 393.7 0 0 -697.8c0,-291.04 -174.27,-479.07 -439.56,-479.07l0 0zm1287.29 831.85c-82.9,0 -132.29,-49.39 -132.29,-131.23l0 -364.07 276.93 0 0 -302.68 -287.52 0 0 -334.08 -80.43 0 -511.88 544.69 0 92.07 209.2 0 0 431.8c0,254 153.81,408.52 406.4,408.52l270.58 0 0 -345.02 -150.99 0zm2635.61 -799.04l-40.22 88.19c-94.19,-77.61 -214.49,-122.76 -349.25,-122.76 -349.6,0 -599.37,251.88 -599.37,606.07 0,355.25 249.77,609.95 599.37,609.95 132.64,0 251.18,-43.74 345.02,-119.59l33.51 80.79 304.09 0 0 -1142.65 -293.15 0zm-336.91 832.91c-147.46,0 -256.11,-111.13 -256.11,-260.7 0,-148.52 107.59,-260 256.11,-260 147.46,0 256.12,111.48 256.12,260 0,149.22 -108.66,260.7 -256.12,260.7l0 0zm1568.11 -865.72c-147.11,0 -273.41,56.8 -358.43,151.34l-53.97 -117.47 -276.23 0 0 1143 393.7 0 0 -610.31c0,-146.4 70.21,-232.12 192.62,-232.12 98.43,0 148.17,65.96 148.17,198.96l0 643.47 393.7 0 0 -697.8c0,-291.04 -174.27,-479.07 -439.56,-479.07l0 0zm1837.62 1176.87l-392.29 -598.31 356.3 -544.69 -442.38 0 -271.99 447.67 0 -860.42 -393.7 0 0 1555.75 393.7 0 0 -483.31 286.1 483.31 464.26 0zm-4414.32 -782.46c113.24,-68.44 187.33,-187.68 187.33,-319.97 0,-219.08 -191.56,-379.24 -454.38,-379.24l-669.22 0 0 1481.67 682.98 0c273.4,0 480.48,-181.68 480.48,-421.92 0,-161.58 -87.49,-294.22 -227.19,-360.54l0 0zm-200.02 -252.59c0,76.9 -52.57,129.12 -137.94,129.12l-206.38 0 0 -257.89 206.38 0c85.37,0 137.94,51.86 137.94,128.77l0 0zm-122.42 699.91l-221.9 0 0 -269.52 221.9 0c88.2,0 146.05,55.74 146.05,134.41 0,79.72 -57.85,135.11 -146.05,135.11l0 0z"/>
 </g>
</svg>